<mxfile host="www.draw.io" modified="2020-02-15T19:46:03.063Z" agent="Mozilla/5.0 (Windows NT 10.0; Win64; x64; rv:68.0) Gecko/20100101 Firefox/68.0" etag="WB1uZ23m0aGqfxy0T5bE" version="12.7.0" type="github">
  <diagram id="LvtU4ygOWoCGZ0LwoWxn" name="Page-1">
    <mxGraphModel dx="1422" dy="911" grid="1" gridSize="10" guides="1" tooltips="1" connect="1" arrows="1" fold="1" page="1" pageScale="1" pageWidth="1100" pageHeight="850" math="0" shadow="0">
      <root>
        <mxCell id="0"/>
        <mxCell id="1" parent="0"/>
        <mxCell id="rJTAOK5K24PluPuOmUTb-54" value="" style="rounded=0;whiteSpace=wrap;html=1;" vertex="1" parent="1">
          <mxGeometry y="480" width="1110" height="320" as="geometry"/>
        </mxCell>
        <mxCell id="rJTAOK5K24PluPuOmUTb-59" value="loop" style="text;html=1;align=center;verticalAlign=middle;resizable=0;points=[];autosize=1;" vertex="1" parent="1">
          <mxGeometry x="5" y="480" width="40" height="20" as="geometry"/>
        </mxCell>
        <mxCell id="rJTAOK5K24PluPuOmUTb-60" value="loop" style="rounded=0;whiteSpace=wrap;html=1;" vertex="1" parent="1">
          <mxGeometry y="480" width="50" height="20" as="geometry"/>
        </mxCell>
        <mxCell id="rJTAOK5K24PluPuOmUTb-43" value="" style="rounded=0;whiteSpace=wrap;html=1;" vertex="1" parent="1">
          <mxGeometry y="270" width="250" height="60" as="geometry"/>
        </mxCell>
        <mxCell id="rJTAOK5K24PluPuOmUTb-1" value="ACTOR" style="rounded=0;whiteSpace=wrap;html=1;" vertex="1" parent="1">
          <mxGeometry x="20" y="20" width="100" height="50" as="geometry"/>
        </mxCell>
        <mxCell id="rJTAOK5K24PluPuOmUTb-2" value="UI" style="rounded=0;whiteSpace=wrap;html=1;" vertex="1" parent="1">
          <mxGeometry x="160" y="20" width="110" height="50" as="geometry"/>
        </mxCell>
        <mxCell id="rJTAOK5K24PluPuOmUTb-3" value="Warehouse" style="rounded=0;whiteSpace=wrap;html=1;" vertex="1" parent="1">
          <mxGeometry x="310" y="20" width="120" height="50" as="geometry"/>
        </mxCell>
        <mxCell id="rJTAOK5K24PluPuOmUTb-4" value="Supplier" style="rounded=0;whiteSpace=wrap;html=1;" vertex="1" parent="1">
          <mxGeometry x="480" y="20" width="120" height="55" as="geometry"/>
        </mxCell>
        <mxCell id="rJTAOK5K24PluPuOmUTb-5" value="SupplierList" style="rounded=0;whiteSpace=wrap;html=1;" vertex="1" parent="1">
          <mxGeometry x="640" y="20" width="120" height="55" as="geometry"/>
        </mxCell>
        <mxCell id="rJTAOK5K24PluPuOmUTb-6" value="Product" style="rounded=0;whiteSpace=wrap;html=1;" vertex="1" parent="1">
          <mxGeometry x="800" y="20" width="120" height="60" as="geometry"/>
        </mxCell>
        <mxCell id="rJTAOK5K24PluPuOmUTb-7" value="" style="endArrow=none;dashed=1;html=1;" edge="1" parent="1" source="rJTAOK5K24PluPuOmUTb-16">
          <mxGeometry width="50" height="50" relative="1" as="geometry">
            <mxPoint x="70" y="840" as="sourcePoint"/>
            <mxPoint x="70" y="70" as="targetPoint"/>
          </mxGeometry>
        </mxCell>
        <mxCell id="rJTAOK5K24PluPuOmUTb-9" value="" style="endArrow=none;dashed=1;html=1;" edge="1" parent="1" source="rJTAOK5K24PluPuOmUTb-15">
          <mxGeometry width="50" height="50" relative="1" as="geometry">
            <mxPoint x="214.5" y="840" as="sourcePoint"/>
            <mxPoint x="214.5" y="70" as="targetPoint"/>
          </mxGeometry>
        </mxCell>
        <mxCell id="rJTAOK5K24PluPuOmUTb-10" value="" style="endArrow=none;dashed=1;html=1;" edge="1" parent="1" source="rJTAOK5K24PluPuOmUTb-37">
          <mxGeometry width="50" height="50" relative="1" as="geometry">
            <mxPoint x="369.5" y="840" as="sourcePoint"/>
            <mxPoint x="369.5" y="70" as="targetPoint"/>
          </mxGeometry>
        </mxCell>
        <mxCell id="rJTAOK5K24PluPuOmUTb-11" value="" style="endArrow=none;dashed=1;html=1;" edge="1" parent="1">
          <mxGeometry width="50" height="50" relative="1" as="geometry">
            <mxPoint x="540" y="490" as="sourcePoint"/>
            <mxPoint x="539.5" y="75" as="targetPoint"/>
          </mxGeometry>
        </mxCell>
        <mxCell id="rJTAOK5K24PluPuOmUTb-12" value="" style="endArrow=none;dashed=1;html=1;" edge="1" parent="1" source="rJTAOK5K24PluPuOmUTb-40">
          <mxGeometry width="50" height="50" relative="1" as="geometry">
            <mxPoint x="699.5" y="845" as="sourcePoint"/>
            <mxPoint x="699.5" y="75" as="targetPoint"/>
          </mxGeometry>
        </mxCell>
        <mxCell id="rJTAOK5K24PluPuOmUTb-13" value="" style="endArrow=none;dashed=1;html=1;" edge="1" parent="1">
          <mxGeometry width="50" height="50" relative="1" as="geometry">
            <mxPoint x="859.5" y="850" as="sourcePoint"/>
            <mxPoint x="859.5" y="80" as="targetPoint"/>
          </mxGeometry>
        </mxCell>
        <mxCell id="rJTAOK5K24PluPuOmUTb-17" value="" style="endArrow=none;dashed=1;html=1;" edge="1" parent="1" target="rJTAOK5K24PluPuOmUTb-16">
          <mxGeometry width="50" height="50" relative="1" as="geometry">
            <mxPoint x="70" y="840" as="sourcePoint"/>
            <mxPoint x="70" y="70" as="targetPoint"/>
          </mxGeometry>
        </mxCell>
        <mxCell id="rJTAOK5K24PluPuOmUTb-18" value="" style="endArrow=none;dashed=1;html=1;" edge="1" parent="1" target="rJTAOK5K24PluPuOmUTb-15">
          <mxGeometry width="50" height="50" relative="1" as="geometry">
            <mxPoint x="214.5" y="840" as="sourcePoint"/>
            <mxPoint x="214.5" y="70" as="targetPoint"/>
          </mxGeometry>
        </mxCell>
        <mxCell id="rJTAOK5K24PluPuOmUTb-19" value="&lt;div&gt;Request to view inventory&lt;/div&gt;&lt;div&gt;for supplier&lt;br&gt;&lt;/div&gt;" style="endArrow=classic;html=1;entryX=0.1;entryY=0.031;entryDx=0;entryDy=0;entryPerimeter=0;" edge="1" parent="1" target="rJTAOK5K24PluPuOmUTb-15">
          <mxGeometry x="-0.0547" y="20" width="50" height="50" relative="1" as="geometry">
            <mxPoint x="80" y="150" as="sourcePoint"/>
            <mxPoint x="130" y="100" as="targetPoint"/>
            <mxPoint as="offset"/>
          </mxGeometry>
        </mxCell>
        <mxCell id="rJTAOK5K24PluPuOmUTb-20" value="supplier" style="endArrow=classic;html=1;dashed=1;" edge="1" parent="1">
          <mxGeometry width="50" height="50" relative="1" as="geometry">
            <mxPoint x="695" y="240" as="sourcePoint"/>
            <mxPoint x="390" y="240" as="targetPoint"/>
          </mxGeometry>
        </mxCell>
        <mxCell id="rJTAOK5K24PluPuOmUTb-21" value="get supplier id" style="endArrow=classic;html=1;" edge="1" parent="1">
          <mxGeometry width="50" height="50" relative="1" as="geometry">
            <mxPoint x="205" y="170" as="sourcePoint"/>
            <mxPoint x="81" y="168" as="targetPoint"/>
          </mxGeometry>
        </mxCell>
        <mxCell id="rJTAOK5K24PluPuOmUTb-22" value="" style="endArrow=classic;html=1;entryX=0;entryY=0.25;entryDx=0;entryDy=0;" edge="1" parent="1" target="rJTAOK5K24PluPuOmUTb-37">
          <mxGeometry width="50" height="50" relative="1" as="geometry">
            <mxPoint x="225" y="210" as="sourcePoint"/>
            <mxPoint x="340" y="210" as="targetPoint"/>
          </mxGeometry>
        </mxCell>
        <mxCell id="rJTAOK5K24PluPuOmUTb-39" value="verifySupplier(id)" style="text;html=1;align=center;verticalAlign=middle;resizable=0;points=[];labelBackgroundColor=#ffffff;" vertex="1" connectable="0" parent="rJTAOK5K24PluPuOmUTb-22">
          <mxGeometry x="-0.3037" relative="1" as="geometry">
            <mxPoint as="offset"/>
          </mxGeometry>
        </mxCell>
        <mxCell id="rJTAOK5K24PluPuOmUTb-23" value="find(supplier)" style="endArrow=classic;html=1;entryX=0;entryY=0.5;entryDx=0;entryDy=0;" edge="1" parent="1" target="rJTAOK5K24PluPuOmUTb-40">
          <mxGeometry width="50" height="50" relative="1" as="geometry">
            <mxPoint x="380" y="220" as="sourcePoint"/>
            <mxPoint x="430" y="170" as="targetPoint"/>
          </mxGeometry>
        </mxCell>
        <mxCell id="rJTAOK5K24PluPuOmUTb-25" value="&lt;div&gt;id invalid,&lt;/div&gt;&lt;div&gt;re-enter&lt;br&gt;&lt;/div&gt;" style="endArrow=classic;html=1;entryX=1;entryY=0.261;entryDx=0;entryDy=0;entryPerimeter=0;" edge="1" parent="1" target="rJTAOK5K24PluPuOmUTb-16">
          <mxGeometry width="50" height="50" relative="1" as="geometry">
            <mxPoint x="205" y="290" as="sourcePoint"/>
            <mxPoint x="255" y="240" as="targetPoint"/>
          </mxGeometry>
        </mxCell>
        <mxCell id="rJTAOK5K24PluPuOmUTb-27" value="getName, getQuantity" style="endArrow=classic;html=1;entryX=0;entryY=0.5;entryDx=0;entryDy=0;" edge="1" parent="1" target="rJTAOK5K24PluPuOmUTb-62">
          <mxGeometry width="50" height="50" relative="1" as="geometry">
            <mxPoint x="225" y="570" as="sourcePoint"/>
            <mxPoint x="275" y="520" as="targetPoint"/>
          </mxGeometry>
        </mxCell>
        <mxCell id="rJTAOK5K24PluPuOmUTb-28" value="hide 0 stock items?" style="endArrow=classic;html=1;entryX=1.2;entryY=0.362;entryDx=0;entryDy=0;entryPerimeter=0;" edge="1" parent="1" target="rJTAOK5K24PluPuOmUTb-16">
          <mxGeometry width="50" height="50" relative="1" as="geometry">
            <mxPoint x="205" y="360" as="sourcePoint"/>
            <mxPoint x="255" y="310" as="targetPoint"/>
          </mxGeometry>
        </mxCell>
        <mxCell id="rJTAOK5K24PluPuOmUTb-29" value="if null, then invalid" style="endArrow=classic;html=1;dashed=1;entryX=1.25;entryY=0.203;entryDx=0;entryDy=0;entryPerimeter=0;" edge="1" parent="1" target="rJTAOK5K24PluPuOmUTb-15">
          <mxGeometry width="50" height="50" relative="1" as="geometry">
            <mxPoint x="360" y="260" as="sourcePoint"/>
            <mxPoint x="410" y="210" as="targetPoint"/>
          </mxGeometry>
        </mxCell>
        <mxCell id="rJTAOK5K24PluPuOmUTb-30" value="" style="endArrow=classic;html=1;dashed=1;entryX=0;entryY=0.117;entryDx=0;entryDy=0;entryPerimeter=0;" edge="1" parent="1" target="rJTAOK5K24PluPuOmUTb-15">
          <mxGeometry width="50" height="50" relative="1" as="geometry">
            <mxPoint x="80" y="290" as="sourcePoint"/>
            <mxPoint x="130" y="240" as="targetPoint"/>
          </mxGeometry>
        </mxCell>
        <mxCell id="rJTAOK5K24PluPuOmUTb-31" value="iterator" style="endArrow=classic;html=1;dashed=1;" edge="1" parent="1">
          <mxGeometry width="50" height="50" relative="1" as="geometry">
            <mxPoint x="530" y="445" as="sourcePoint"/>
            <mxPoint x="383" y="440" as="targetPoint"/>
          </mxGeometry>
        </mxCell>
        <mxCell id="rJTAOK5K24PluPuOmUTb-32" value="supplierIterator" style="endArrow=classic;html=1;dashed=1;entryX=1.15;entryY=0.516;entryDx=0;entryDy=0;entryPerimeter=0;" edge="1" parent="1" target="rJTAOK5K24PluPuOmUTb-15">
          <mxGeometry width="50" height="50" relative="1" as="geometry">
            <mxPoint x="360" y="460" as="sourcePoint"/>
            <mxPoint x="410" y="410" as="targetPoint"/>
          </mxGeometry>
        </mxCell>
        <mxCell id="rJTAOK5K24PluPuOmUTb-33" value="" style="endArrow=classic;html=1;dashed=1;entryX=1;entryY=0.75;entryDx=0;entryDy=0;" edge="1" parent="1" target="rJTAOK5K24PluPuOmUTb-16">
          <mxGeometry width="50" height="50" relative="1" as="geometry">
            <mxPoint x="205" y="628.5" as="sourcePoint"/>
            <mxPoint x="255" y="578.5" as="targetPoint"/>
          </mxGeometry>
        </mxCell>
        <mxCell id="rJTAOK5K24PluPuOmUTb-34" value="display name, quant" style="endArrow=classic;html=1;dashed=1;" edge="1" parent="1" target="rJTAOK5K24PluPuOmUTb-64">
          <mxGeometry x="-1" y="70" width="50" height="50" relative="1" as="geometry">
            <mxPoint x="210" y="628.5" as="sourcePoint"/>
            <mxPoint x="130" y="628.5" as="targetPoint"/>
            <mxPoint x="-61" y="65" as="offset"/>
          </mxGeometry>
        </mxCell>
        <mxCell id="rJTAOK5K24PluPuOmUTb-35" value="" style="endArrow=classic;html=1;dashed=1;entryX=0.95;entryY=0.693;entryDx=0;entryDy=0;entryPerimeter=0;" edge="1" parent="1" target="rJTAOK5K24PluPuOmUTb-15">
          <mxGeometry width="50" height="50" relative="1" as="geometry">
            <mxPoint x="850" y="602" as="sourcePoint"/>
            <mxPoint x="900" y="552" as="targetPoint"/>
          </mxGeometry>
        </mxCell>
        <mxCell id="rJTAOK5K24PluPuOmUTb-63" value="name, quantity" style="text;html=1;align=center;verticalAlign=middle;resizable=0;points=[];labelBackgroundColor=#ffffff;" vertex="1" connectable="0" parent="rJTAOK5K24PluPuOmUTb-35">
          <mxGeometry x="0.234" y="-3" relative="1" as="geometry">
            <mxPoint as="offset"/>
          </mxGeometry>
        </mxCell>
        <mxCell id="rJTAOK5K24PluPuOmUTb-36" value="supplierId" style="endArrow=classic;html=1;dashed=1;entryX=0.05;entryY=0.098;entryDx=0;entryDy=0;entryPerimeter=0;exitX=1.15;exitY=0.12;exitDx=0;exitDy=0;exitPerimeter=0;" edge="1" parent="1" source="rJTAOK5K24PluPuOmUTb-16" target="rJTAOK5K24PluPuOmUTb-15">
          <mxGeometry width="50" height="50" relative="1" as="geometry">
            <mxPoint x="80" y="210" as="sourcePoint"/>
            <mxPoint x="130" y="160" as="targetPoint"/>
          </mxGeometry>
        </mxCell>
        <mxCell id="rJTAOK5K24PluPuOmUTb-37" value="" style="rounded=0;whiteSpace=wrap;html=1;" vertex="1" parent="1">
          <mxGeometry x="360" y="190" width="20" height="70" as="geometry"/>
        </mxCell>
        <mxCell id="rJTAOK5K24PluPuOmUTb-38" value="" style="endArrow=none;dashed=1;html=1;" edge="1" parent="1" target="rJTAOK5K24PluPuOmUTb-37">
          <mxGeometry width="50" height="50" relative="1" as="geometry">
            <mxPoint x="369.5" y="840" as="sourcePoint"/>
            <mxPoint x="369.5" y="70" as="targetPoint"/>
          </mxGeometry>
        </mxCell>
        <mxCell id="rJTAOK5K24PluPuOmUTb-40" value="" style="rounded=0;whiteSpace=wrap;html=1;" vertex="1" parent="1">
          <mxGeometry x="695" y="200" width="10" height="40" as="geometry"/>
        </mxCell>
        <mxCell id="rJTAOK5K24PluPuOmUTb-42" value="" style="endArrow=none;dashed=1;html=1;" edge="1" parent="1" target="rJTAOK5K24PluPuOmUTb-40">
          <mxGeometry width="50" height="50" relative="1" as="geometry">
            <mxPoint x="699.5" y="845" as="sourcePoint"/>
            <mxPoint x="699.5" y="75" as="targetPoint"/>
          </mxGeometry>
        </mxCell>
        <mxCell id="rJTAOK5K24PluPuOmUTb-44" value="opt" style="rounded=0;whiteSpace=wrap;html=1;" vertex="1" parent="1">
          <mxGeometry y="270" width="60" height="20" as="geometry"/>
        </mxCell>
        <mxCell id="rJTAOK5K24PluPuOmUTb-45" value="invalid id" style="text;html=1;align=center;verticalAlign=middle;resizable=0;points=[];autosize=1;" vertex="1" parent="1">
          <mxGeometry y="290" width="60" height="20" as="geometry"/>
        </mxCell>
        <mxCell id="rJTAOK5K24PluPuOmUTb-49" value="yes/no" style="endArrow=classic;html=1;dashed=1;entryX=0.05;entryY=0.402;entryDx=0;entryDy=0;entryPerimeter=0;" edge="1" parent="1" target="rJTAOK5K24PluPuOmUTb-15">
          <mxGeometry width="50" height="50" relative="1" as="geometry">
            <mxPoint x="80" y="390" as="sourcePoint"/>
            <mxPoint x="130" y="340" as="targetPoint"/>
          </mxGeometry>
        </mxCell>
        <mxCell id="rJTAOK5K24PluPuOmUTb-50" value="getSupplierProdIter(id)" style="endArrow=classic;html=1;entryX=0;entryY=0.097;entryDx=0;entryDy=0;entryPerimeter=0;" edge="1" parent="1">
          <mxGeometry width="50" height="50" relative="1" as="geometry">
            <mxPoint x="225" y="410" as="sourcePoint"/>
            <mxPoint x="360" y="413.5799999999999" as="targetPoint"/>
          </mxGeometry>
        </mxCell>
        <mxCell id="rJTAOK5K24PluPuOmUTb-51" value="" style="rounded=0;whiteSpace=wrap;html=1;" vertex="1" parent="1">
          <mxGeometry x="360" y="400" width="20" height="140" as="geometry"/>
        </mxCell>
        <mxCell id="rJTAOK5K24PluPuOmUTb-53" value="" style="endArrow=none;dashed=1;html=1;" edge="1" parent="1">
          <mxGeometry width="50" height="50" relative="1" as="geometry">
            <mxPoint x="539.5" y="845" as="sourcePoint"/>
            <mxPoint x="539.9615384615386" y="485" as="targetPoint"/>
          </mxGeometry>
        </mxCell>
        <mxCell id="rJTAOK5K24PluPuOmUTb-55" value="" style="rounded=0;whiteSpace=wrap;html=1;" vertex="1" parent="1">
          <mxGeometry x="530" y="395" width="20" height="60" as="geometry"/>
        </mxCell>
        <mxCell id="rJTAOK5K24PluPuOmUTb-56" value="" style="endArrow=classic;html=1;" edge="1" parent="1">
          <mxGeometry width="50" height="50" relative="1" as="geometry">
            <mxPoint x="380" y="418" as="sourcePoint"/>
            <mxPoint x="531" y="418" as="targetPoint"/>
          </mxGeometry>
        </mxCell>
        <mxCell id="rJTAOK5K24PluPuOmUTb-57" value="getProductIterator()" style="text;html=1;align=center;verticalAlign=middle;resizable=0;points=[];labelBackgroundColor=#ffffff;" vertex="1" connectable="0" parent="rJTAOK5K24PluPuOmUTb-56">
          <mxGeometry x="-0.3775" y="-2" relative="1" as="geometry">
            <mxPoint x="23" as="offset"/>
          </mxGeometry>
        </mxCell>
        <mxCell id="rJTAOK5K24PluPuOmUTb-61" value="&lt;div&gt;while&lt;/div&gt;&lt;div&gt;it.hasNext&lt;br&gt;&lt;/div&gt;" style="text;html=1;align=center;verticalAlign=middle;resizable=0;points=[];autosize=1;" vertex="1" parent="1">
          <mxGeometry y="500" width="70" height="30" as="geometry"/>
        </mxCell>
        <mxCell id="rJTAOK5K24PluPuOmUTb-62" value="" style="rounded=0;whiteSpace=wrap;html=1;" vertex="1" parent="1">
          <mxGeometry x="850" y="547" width="20" height="60" as="geometry"/>
        </mxCell>
        <mxCell id="rJTAOK5K24PluPuOmUTb-64" value="" style="rounded=0;whiteSpace=wrap;html=1;" vertex="1" parent="1">
          <mxGeometry x="10" y="608.5" width="230" height="63" as="geometry"/>
        </mxCell>
        <mxCell id="rJTAOK5K24PluPuOmUTb-65" value="opt" style="rounded=0;whiteSpace=wrap;html=1;" vertex="1" parent="1">
          <mxGeometry x="10" y="608.5" width="50" height="20" as="geometry"/>
        </mxCell>
        <mxCell id="rJTAOK5K24PluPuOmUTb-66" value="opt" style="rounded=0;whiteSpace=wrap;html=1;" vertex="1" parent="1">
          <mxGeometry x="10" y="680" width="50" height="30" as="geometry"/>
        </mxCell>
        <mxCell id="rJTAOK5K24PluPuOmUTb-67" value="" style="rounded=0;whiteSpace=wrap;html=1;" vertex="1" parent="1">
          <mxGeometry x="10" y="680" width="280" height="110" as="geometry"/>
        </mxCell>
        <mxCell id="rJTAOK5K24PluPuOmUTb-68" value="opt" style="rounded=0;whiteSpace=wrap;html=1;" vertex="1" parent="1">
          <mxGeometry x="10" y="680" width="50" height="20" as="geometry"/>
        </mxCell>
        <mxCell id="rJTAOK5K24PluPuOmUTb-69" value="&lt;div&gt;don&#39;t&lt;/div&gt;&lt;div&gt;hide 0&lt;br&gt;&lt;/div&gt;" style="text;html=1;align=center;verticalAlign=middle;resizable=0;points=[];autosize=1;" vertex="1" parent="1">
          <mxGeometry x="10" y="628.5" width="50" height="30" as="geometry"/>
        </mxCell>
        <mxCell id="rJTAOK5K24PluPuOmUTb-70" value="" style="endArrow=classic;html=1;dashed=1;" edge="1" parent="1">
          <mxGeometry width="50" height="50" relative="1" as="geometry">
            <mxPoint x="205" y="629" as="sourcePoint"/>
            <mxPoint x="80" y="628.5" as="targetPoint"/>
          </mxGeometry>
        </mxCell>
        <mxCell id="rJTAOK5K24PluPuOmUTb-71" value="display name, quant" style="text;html=1;align=center;verticalAlign=middle;resizable=0;points=[];labelBackgroundColor=#ffffff;" vertex="1" connectable="0" parent="rJTAOK5K24PluPuOmUTb-70">
          <mxGeometry x="0.5518" y="2" relative="1" as="geometry">
            <mxPoint x="32.01" y="-2.11" as="offset"/>
          </mxGeometry>
        </mxCell>
        <mxCell id="rJTAOK5K24PluPuOmUTb-72" value="hide 0" style="text;html=1;align=center;verticalAlign=middle;resizable=0;points=[];autosize=1;" vertex="1" parent="1">
          <mxGeometry x="10" y="700" width="50" height="20" as="geometry"/>
        </mxCell>
        <mxCell id="rJTAOK5K24PluPuOmUTb-73" value="" style="rounded=0;whiteSpace=wrap;html=1;" vertex="1" parent="1">
          <mxGeometry x="20" y="720" width="230" height="60" as="geometry"/>
        </mxCell>
        <mxCell id="rJTAOK5K24PluPuOmUTb-74" value="opt" style="rounded=1;whiteSpace=wrap;html=1;" vertex="1" parent="1">
          <mxGeometry x="20" y="720" width="50" height="30" as="geometry"/>
        </mxCell>
        <mxCell id="rJTAOK5K24PluPuOmUTb-16" value="" style="rounded=0;whiteSpace=wrap;html=1;" vertex="1" parent="1">
          <mxGeometry x="60" y="110" width="20" height="690" as="geometry"/>
        </mxCell>
        <mxCell id="rJTAOK5K24PluPuOmUTb-15" value="" style="rounded=0;whiteSpace=wrap;html=1;" vertex="1" parent="1">
          <mxGeometry x="205" y="130" width="20" height="670" as="geometry"/>
        </mxCell>
        <mxCell id="rJTAOK5K24PluPuOmUTb-75" value="q &amp;gt; 0" style="text;html=1;align=center;verticalAlign=middle;resizable=0;points=[];autosize=1;" vertex="1" parent="1">
          <mxGeometry x="20" y="750" width="40" height="20" as="geometry"/>
        </mxCell>
        <mxCell id="rJTAOK5K24PluPuOmUTb-76" value="" style="endArrow=classic;html=1;dashed=1;exitX=0.1;exitY=0.925;exitDx=0;exitDy=0;exitPerimeter=0;" edge="1" parent="1" source="rJTAOK5K24PluPuOmUTb-15">
          <mxGeometry width="50" height="50" relative="1" as="geometry">
            <mxPoint x="190" y="750" as="sourcePoint"/>
            <mxPoint x="80" y="750" as="targetPoint"/>
          </mxGeometry>
        </mxCell>
        <mxCell id="rJTAOK5K24PluPuOmUTb-77" value="display name, quant" style="text;html=1;align=center;verticalAlign=middle;resizable=0;points=[];labelBackgroundColor=#ffffff;" vertex="1" connectable="0" parent="rJTAOK5K24PluPuOmUTb-76">
          <mxGeometry x="0.1968" y="-1" relative="1" as="geometry">
            <mxPoint x="19" as="offset"/>
          </mxGeometry>
        </mxCell>
      </root>
    </mxGraphModel>
  </diagram>
</mxfile>
